<svg width="191" height="211" viewBox="0 0 191 211" fill="none" xmlns="http://www.w3.org/2000/svg">
<path d="M108.737 160.56C107.783 163.924 105.604 166.367 102.882 168.369C98.8062 171.363 94.5619 171.427 90.4052 168.53C87.5499 166.543 85.2488 164.075 84.2351 160.658C79.7381 161.648 76.1708 160.068 73.2102 156.824C72.7647 156.336 72.4315 155.697 72.1895 155.072C71.7194 153.875 71.9825 153.057 72.9682 152.239C75.5394 150.111 77.4336 147.439 79.0506 144.564C83.8738 135.969 86.6835 126.735 87.6516 116.935C88.0129 113.273 88.2514 109.601 87.2587 105.984C87.0097 105.078 86.6975 104.183 86.3081 103.33C84.4841 99.3308 81.0009 97.4559 76.7074 98.3021C74.9711 98.6426 73.2172 99.1517 71.6282 99.9136C67.9206 101.69 64.0059 102.449 59.965 102.726C55.3944 103.038 50.8835 102.579 46.4883 101.265C45.2921 100.907 44.1626 100.293 43.0612 99.6854C42.535 99.394 42.1808 99.387 41.6616 99.6503C37.2068 101.887 32.6187 103.783 27.6973 104.696C26.1469 104.984 24.5298 105.082 22.9548 105.008C19.9873 104.864 18.8367 102.638 20.5555 100.226C21.692 98.6286 23.1197 97.2031 24.5824 95.8829C34.1621 87.2317 45.6043 82.1863 57.906 78.8719C63.357 77.4043 68.9062 76.6459 74.5677 76.8952C77.4476 77.0216 80.2012 77.5623 82.839 78.8403C83.5125 79.1668 84.6349 78.9351 85.4066 78.6121C87.2903 77.8221 88.3567 76.1579 88.981 74.3181C89.7422 72.0851 90.2614 69.7713 90.8822 67.4926C91.3768 65.6879 91.9486 63.9535 93.6884 62.8861C93.9305 62.7386 94.0146 62.205 94.0357 61.8398C94.2672 57.8197 94.4496 53.796 94.6846 49.7794C94.8425 47.0899 95.0424 44.404 95.2599 41.7215C95.2809 41.4687 95.5545 41.2335 95.7124 40.9912C95.8843 41.251 96.1894 41.5003 96.2105 41.7742C96.4911 45.0746 96.7366 48.3785 96.9717 51.6824C97.2137 55.0846 97.4417 58.4868 97.6662 61.889C97.7048 62.4718 97.8907 62.8826 98.4344 63.2302C99.613 63.9816 100.22 65.1999 100.599 66.492C101.202 68.5459 101.69 70.6315 102.279 72.689C102.766 74.3918 103.461 76.028 104.755 77.2674C105.436 77.9239 106.309 78.426 107.172 78.8263C107.916 79.1704 108.705 79.0615 109.491 78.6226C111.837 77.313 114.426 76.8671 117.078 76.7091C126.24 76.1649 134.96 78.2575 143.477 81.3261C151.029 84.0472 158.21 87.5477 164.548 92.551C166.758 94.296 168.772 96.2973 170.817 98.2424C171.367 98.7655 171.792 99.4712 172.114 100.17C172.942 101.968 172.227 103.692 170.287 103.958C168.393 104.218 166.386 104.197 164.499 103.888C159.725 103.105 155.239 101.346 150.907 99.222C150.128 98.8393 149.577 98.8041 148.806 99.2992C146.234 100.956 143.267 101.483 140.313 101.947C135.115 102.765 129.934 102.554 124.851 101.22C122.824 100.686 120.912 99.7275 118.92 99.0324C117.822 98.6497 116.685 98.3231 115.542 98.1265C111.157 97.3716 107.733 99.236 105.913 103.305C104.534 106.384 104.247 109.636 104.433 112.95C105.025 123.603 107.828 133.637 112.911 143.019C114.812 146.526 117.039 149.788 120.207 152.32C120.54 152.586 120.835 153.148 120.81 153.555C120.765 154.307 120.617 155.125 120.26 155.774C118.306 159.31 113.093 161.547 109.175 160.613C109.056 160.585 108.926 160.581 108.733 160.556L108.737 160.56Z" fill="#CD4B27"/>
<mask id="mask0_141_14" style="mask-type:luminance" maskUnits="userSpaceOnUse" x="19" y="40" width="154" height="131">
<path d="M108.737 160.56C107.783 163.924 105.604 166.367 102.882 168.369C98.8062 171.363 94.5619 171.427 90.4052 168.53C87.5499 166.543 85.2488 164.075 84.2351 160.658C79.7381 161.648 76.1708 160.068 73.2102 156.824C72.7647 156.336 72.4315 155.697 72.1895 155.072C71.7194 153.875 71.9825 153.057 72.9682 152.239C75.5394 150.111 77.4336 147.439 79.0506 144.564C83.8738 135.969 86.6835 126.735 87.6516 116.935C88.0129 113.273 88.2514 109.601 87.2587 105.984C87.0097 105.078 86.6975 104.183 86.3081 103.33C84.4841 99.3308 81.0009 97.4559 76.7074 98.3021C74.9711 98.6426 73.2172 99.1517 71.6282 99.9136C67.9206 101.69 64.0059 102.449 59.965 102.726C55.3944 103.038 50.8835 102.579 46.4883 101.265C45.2921 100.907 44.1626 100.293 43.0612 99.6854C42.535 99.394 42.1808 99.387 41.6616 99.6503C37.2068 101.887 32.6187 103.783 27.6973 104.696C26.1469 104.984 24.5298 105.082 22.9548 105.008C19.9873 104.864 18.8367 102.638 20.5555 100.226C21.692 98.6286 23.1197 97.2031 24.5824 95.8829C34.1621 87.2317 45.6043 82.1863 57.906 78.8719C63.357 77.4043 68.9062 76.6459 74.5677 76.8952C77.4476 77.0216 80.2012 77.5623 82.839 78.8403C83.5125 79.1668 84.6349 78.9351 85.4066 78.6121C87.2903 77.8221 88.3567 76.1579 88.981 74.3181C89.7422 72.0851 90.2614 69.7713 90.8822 67.4926C91.3768 65.6879 91.9486 63.9535 93.6884 62.8861C93.9305 62.7386 94.0146 62.205 94.0357 61.8398C94.2672 57.8197 94.4496 53.796 94.6846 49.7794C94.8425 47.0899 95.0424 44.404 95.2599 41.7215C95.2809 41.4687 95.5545 41.2335 95.7124 40.9912C95.8843 41.251 96.1894 41.5003 96.2105 41.7742C96.4911 45.0746 96.7366 48.3785 96.9717 51.6824C97.2137 55.0846 97.4417 58.4868 97.6662 61.889C97.7048 62.4718 97.8907 62.8826 98.4344 63.2302C99.613 63.9816 100.22 65.1999 100.599 66.492C101.202 68.5459 101.69 70.6315 102.279 72.689C102.766 74.3918 103.461 76.028 104.755 77.2674C105.436 77.9239 106.309 78.426 107.172 78.8263C107.916 79.1704 108.705 79.0615 109.491 78.6226C111.837 77.313 114.426 76.8671 117.078 76.7091C126.24 76.1649 134.96 78.2575 143.477 81.3261C151.029 84.0472 158.21 87.5477 164.548 92.551C166.758 94.296 168.772 96.2973 170.817 98.2424C171.367 98.7655 171.792 99.4712 172.114 100.17C172.942 101.968 172.227 103.692 170.287 103.958C168.393 104.218 166.386 104.197 164.499 103.888C159.725 103.105 155.239 101.346 150.907 99.222C150.128 98.8393 149.577 98.8041 148.806 99.2992C146.234 100.956 143.267 101.483 140.313 101.947C135.115 102.765 129.934 102.554 124.851 101.22C122.824 100.686 120.912 99.7275 118.92 99.0324C117.822 98.6497 116.685 98.3231 115.542 98.1265C111.157 97.3716 107.733 99.236 105.913 103.305C104.534 106.384 104.247 109.636 104.433 112.95C105.025 123.603 107.828 133.637 112.911 143.019C114.812 146.526 117.039 149.788 120.207 152.32C120.54 152.586 120.835 153.148 120.81 153.555C120.765 154.307 120.617 155.125 120.26 155.774C118.306 159.31 113.093 161.547 109.175 160.613C109.056 160.585 108.926 160.581 108.733 160.556L108.737 160.56Z" fill="white"/>
</mask>
<g mask="url(#mask0_141_14)">
<path d="M191 211H0.301758V0C63.8655 0 127.433 0 190.997 0V211H191ZM108.737 160.56C108.929 160.585 109.059 160.585 109.179 160.616C113.097 161.55 118.309 159.314 120.263 155.778C120.621 155.129 120.768 154.311 120.814 153.559C120.838 153.155 120.544 152.59 120.21 152.323C117.046 149.792 114.815 146.53 112.914 143.023C107.832 133.641 105.032 123.606 104.436 112.954C104.25 109.64 104.538 106.388 105.916 103.309C107.74 99.2398 111.164 97.3754 115.545 98.1303C116.689 98.3269 117.825 98.6535 118.923 99.0362C120.912 99.7313 122.824 100.69 124.855 101.224C129.941 102.558 135.122 102.768 140.317 101.95C143.27 101.487 146.234 100.96 148.809 99.303C149.581 98.8079 150.131 98.843 150.91 99.2257C155.242 101.35 159.729 103.109 164.503 103.892C166.39 104.201 168.396 104.218 170.29 103.962C172.23 103.699 172.946 101.971 172.118 100.174C171.795 99.4785 171.371 98.7693 170.82 98.2462C168.775 96.301 166.762 94.2997 164.552 92.5548C158.213 87.548 151.033 84.051 143.481 81.3299C134.964 78.2613 126.244 76.1687 117.081 76.7129C114.433 76.8709 111.844 77.3168 109.494 78.6264C108.705 79.0653 107.919 79.1742 107.176 78.8301C106.309 78.4263 105.439 77.9242 104.759 77.2712C103.468 76.0283 102.77 74.3956 102.282 72.6928C101.693 70.6353 101.205 68.5497 100.602 66.4958C100.223 65.2037 99.6199 63.9854 98.4378 63.234C97.8941 62.8864 97.7082 62.4791 97.6696 61.8928C97.4451 58.4906 97.2206 55.0884 96.9751 51.6862C96.7401 48.3823 96.491 45.0784 96.2139 41.778C96.1894 41.5041 95.8877 41.2548 95.7158 40.995C95.558 41.2373 95.2844 41.469 95.2633 41.7253C95.0458 44.4113 94.8424 47.0972 94.6881 49.7832C94.453 53.8033 94.2706 57.827 94.0391 61.8436C94.0181 62.2088 93.9339 62.7424 93.6919 62.8899C91.952 63.9538 91.3767 65.6917 90.8857 67.4964C90.2613 69.7751 89.7421 72.0889 88.9845 74.3219C88.3601 76.1617 87.2937 77.8259 85.4101 78.6159C84.6384 78.9389 83.5159 79.1706 82.8424 78.8441C80.2081 77.5661 77.4545 77.0254 74.5712 76.899C68.9097 76.6497 63.3604 77.4046 57.9094 78.8757C45.6077 82.1901 34.1655 87.2355 24.5858 95.8867C23.1231 97.2069 21.699 98.6359 20.559 100.23C18.8402 102.642 19.9907 104.868 22.9583 105.012C24.5332 105.089 26.1538 104.987 27.7007 104.699C32.6221 103.787 37.2102 101.891 41.665 99.6541C42.1842 99.3943 42.542 99.3978 43.0646 99.6892C44.1625 100.297 45.2955 100.911 46.4917 101.269C50.8834 102.582 55.3943 103.042 59.9684 102.73C64.0058 102.452 67.924 101.694 71.6317 99.9174C73.2207 99.1555 74.9781 98.6464 76.7109 98.3059C81.0043 97.4597 84.4875 99.3346 86.3116 103.334C86.7009 104.187 87.0131 105.086 87.2622 105.988C88.2549 109.604 88.0163 113.277 87.655 116.939C86.6869 126.735 83.8772 135.972 79.054 144.567C77.437 147.447 75.5463 150.118 72.9716 152.243C71.9824 153.061 71.7229 153.879 72.1929 155.076C72.4384 155.701 72.7682 156.336 73.2137 156.828C76.1742 160.072 79.7416 161.652 84.2385 160.662C85.2522 164.078 87.5533 166.547 90.4086 168.534C94.5653 171.427 98.8096 171.364 102.886 168.372C105.608 166.371 107.786 163.927 108.74 160.564L108.737 160.56Z" fill="#CD4B27"/>
</g>
</svg>
